<mxfile host="app.diagrams.net" modified="2022-02-10T03:36:22.348Z" agent="5.0 (X11; Linux x86_64) AppleWebKit/537.36 (KHTML, like Gecko) Chrome/98.0.4758.80 Safari/537.36" etag="tmUupAY2ehDAJu1f05lr" version="16.5.5" type="github">
  <diagram name="Page-1" id="74b105a0-9070-1c63-61bc-23e55f88626e">
    <mxGraphModel dx="1157" dy="613" grid="1" gridSize="10" guides="1" tooltips="1" connect="1" arrows="1" fold="1" page="1" pageScale="1.5" pageWidth="1169" pageHeight="826" math="0" shadow="0">
      <root>
        <mxCell id="0" style=";html=1;" />
        <mxCell id="1" style=";html=1;" parent="0" />
        <mxCell id="10b056a9c633e61c-30" value="Title" style="text;strokeColor=none;fillColor=none;html=1;fontSize=24;fontStyle=1;verticalAlign=middle;align=center;" parent="1" vertex="1">
          <mxGeometry x="80" y="40" width="1590" height="40" as="geometry" />
        </mxCell>
        <mxCell id="BpcBihjqVBz6EB8KwOPr-84" style="edgeStyle=orthogonalEdgeStyle;rounded=0;orthogonalLoop=1;jettySize=auto;html=1;exitX=1;exitY=0.5;exitDx=0;exitDy=0;fontSize=18;" edge="1" parent="1" source="BpcBihjqVBz6EB8KwOPr-79" target="BpcBihjqVBz6EB8KwOPr-85">
          <mxGeometry relative="1" as="geometry">
            <mxPoint x="1040" y="600.3333333333333" as="targetPoint" />
          </mxGeometry>
        </mxCell>
        <mxCell id="BpcBihjqVBz6EB8KwOPr-79" value="&lt;font style=&quot;font-size: 18px&quot;&gt;Start&lt;/font&gt;" style="ellipse;whiteSpace=wrap;html=1;" vertex="1" parent="1">
          <mxGeometry x="820" y="560" width="120" height="80" as="geometry" />
        </mxCell>
        <mxCell id="BpcBihjqVBz6EB8KwOPr-89" style="edgeStyle=orthogonalEdgeStyle;rounded=0;orthogonalLoop=1;jettySize=auto;html=1;fontSize=18;" edge="1" parent="1" target="BpcBihjqVBz6EB8KwOPr-90">
          <mxGeometry relative="1" as="geometry">
            <mxPoint x="1040.3333333333335" y="490" as="targetPoint" />
            <mxPoint x="1250" y="560" as="sourcePoint" />
          </mxGeometry>
        </mxCell>
        <mxCell id="BpcBihjqVBz6EB8KwOPr-94" style="edgeStyle=orthogonalEdgeStyle;rounded=0;orthogonalLoop=1;jettySize=auto;html=1;exitX=1;exitY=0.5;exitDx=0;exitDy=0;fontSize=18;" edge="1" parent="1" source="BpcBihjqVBz6EB8KwOPr-85" target="BpcBihjqVBz6EB8KwOPr-95">
          <mxGeometry relative="1" as="geometry">
            <mxPoint x="1150" y="600.3333333333333" as="targetPoint" />
          </mxGeometry>
        </mxCell>
        <mxCell id="BpcBihjqVBz6EB8KwOPr-98" style="edgeStyle=orthogonalEdgeStyle;rounded=0;orthogonalLoop=1;jettySize=auto;html=1;exitX=0.5;exitY=1;exitDx=0;exitDy=0;fontSize=18;" edge="1" parent="1" source="BpcBihjqVBz6EB8KwOPr-85">
          <mxGeometry relative="1" as="geometry">
            <mxPoint x="1040.3333333333335" y="690" as="targetPoint" />
          </mxGeometry>
        </mxCell>
        <mxCell id="BpcBihjqVBz6EB8KwOPr-85" value="IsAdmin&lt;br&gt;" style="rhombus;whiteSpace=wrap;html=1;fontSize=18;" vertex="1" parent="1">
          <mxGeometry x="1000" y="560.3333333333333" width="80" height="80" as="geometry" />
        </mxCell>
        <mxCell id="BpcBihjqVBz6EB8KwOPr-100" style="edgeStyle=orthogonalEdgeStyle;rounded=0;orthogonalLoop=1;jettySize=auto;html=1;exitX=1;exitY=0.5;exitDx=0;exitDy=0;fontSize=18;" edge="1" parent="1" source="BpcBihjqVBz6EB8KwOPr-90">
          <mxGeometry relative="1" as="geometry">
            <mxPoint x="1430" y="560" as="targetPoint" />
          </mxGeometry>
        </mxCell>
        <mxCell id="BpcBihjqVBz6EB8KwOPr-90" value="Sign-in" style="rounded=0;whiteSpace=wrap;html=1;fontSize=18;container=1;" vertex="1" parent="1">
          <mxGeometry x="1190.0033333333336" y="440" width="120" height="60" as="geometry" />
        </mxCell>
        <mxCell id="BpcBihjqVBz6EB8KwOPr-93" value="Edit Stocks" style="rounded=0;whiteSpace=wrap;html=1;fontSize=18;container=1;" vertex="1" parent="1">
          <mxGeometry x="980" y="690.0033333333332" width="120" height="60" as="geometry" />
        </mxCell>
        <mxCell id="BpcBihjqVBz6EB8KwOPr-95" value="NewUser&lt;br&gt;" style="rhombus;whiteSpace=wrap;html=1;fontSize=18;container=1;" vertex="1" parent="1">
          <mxGeometry x="1210" y="560.0033333333332" width="80" height="80" as="geometry" />
        </mxCell>
        <mxCell id="BpcBihjqVBz6EB8KwOPr-96" value="" style="group" vertex="1" connectable="0" parent="1">
          <mxGeometry x="1190" y="700" width="120" height="60" as="geometry" />
        </mxCell>
        <mxCell id="BpcBihjqVBz6EB8KwOPr-83" value="Sign-up" style="rounded=0;whiteSpace=wrap;html=1;fontSize=18;container=1;" vertex="1" parent="BpcBihjqVBz6EB8KwOPr-96">
          <mxGeometry width="120" height="60" as="geometry" />
        </mxCell>
        <mxCell id="BpcBihjqVBz6EB8KwOPr-88" style="edgeStyle=orthogonalEdgeStyle;rounded=0;orthogonalLoop=1;jettySize=auto;html=1;exitX=0.5;exitY=1;exitDx=0;exitDy=0;entryX=0.5;entryY=0;entryDx=0;entryDy=0;fontSize=18;" edge="1" parent="1" source="BpcBihjqVBz6EB8KwOPr-95" target="BpcBihjqVBz6EB8KwOPr-83">
          <mxGeometry relative="1" as="geometry" />
        </mxCell>
        <mxCell id="BpcBihjqVBz6EB8KwOPr-101" style="edgeStyle=orthogonalEdgeStyle;rounded=0;orthogonalLoop=1;jettySize=auto;html=1;exitX=1;exitY=0.5;exitDx=0;exitDy=0;fontSize=18;" edge="1" parent="1" source="BpcBihjqVBz6EB8KwOPr-83" target="BpcBihjqVBz6EB8KwOPr-104">
          <mxGeometry relative="1" as="geometry">
            <mxPoint x="1430" y="680" as="targetPoint" />
          </mxGeometry>
        </mxCell>
        <mxCell id="BpcBihjqVBz6EB8KwOPr-104" value="" style="shape=sumEllipse;perimeter=ellipsePerimeter;whiteSpace=wrap;html=1;backgroundOutline=1;fontSize=18;" vertex="1" parent="1">
          <mxGeometry x="1390" y="560.33" width="80" height="80" as="geometry" />
        </mxCell>
      </root>
    </mxGraphModel>
  </diagram>
</mxfile>
